<mxfile host="app.diagrams.net" modified="2022-11-02T16:18:48.147Z" agent="5.0 (Windows NT 10.0; Win64; x64) AppleWebKit/537.36 (KHTML, like Gecko) Chrome/107.0.0.0 Safari/537.36 Edg/107.0.1418.26" etag="Kw4k5uxiKrDAwntgUr1w" version="20.4.2" type="github">
  <diagram id="rM5uzOrRbWsti0kcYfcj" name="第 1 页">
    <mxGraphModel dx="1053" dy="753" grid="1" gridSize="10" guides="1" tooltips="1" connect="1" arrows="1" fold="1" page="1" pageScale="1" pageWidth="827" pageHeight="1169" math="0" shadow="0">
      <root>
        <mxCell id="0" />
        <mxCell id="1" parent="0" />
        <mxCell id="X_r9VZnWIStp2DCHGnrE-1" value="Addon Update" style="rounded=1;whiteSpace=wrap;html=1;arcSize=40;fontColor=#000000;fillColor=#ffffc0;strokeColor=#ff0000;" vertex="1" parent="1">
          <mxGeometry x="210" y="270" width="120" height="40" as="geometry" />
        </mxCell>
        <mxCell id="X_r9VZnWIStp2DCHGnrE-2" value="" style="edgeStyle=orthogonalEdgeStyle;html=1;verticalAlign=bottom;endArrow=open;endSize=8;strokeColor=#ff0000;rounded=0;entryX=0.5;entryY=0;entryDx=0;entryDy=0;" edge="1" source="X_r9VZnWIStp2DCHGnrE-1" parent="1" target="X_r9VZnWIStp2DCHGnrE-3">
          <mxGeometry relative="1" as="geometry">
            <mxPoint x="270" y="370" as="targetPoint" />
          </mxGeometry>
        </mxCell>
        <mxCell id="X_r9VZnWIStp2DCHGnrE-3" value="CombatLog Update" style="rounded=1;whiteSpace=wrap;html=1;arcSize=40;fontColor=#000000;fillColor=#ffffc0;strokeColor=#ff0000;" vertex="1" parent="1">
          <mxGeometry x="210" y="330" width="120" height="40" as="geometry" />
        </mxCell>
        <mxCell id="X_r9VZnWIStp2DCHGnrE-5" value="" style="edgeStyle=orthogonalEdgeStyle;html=1;verticalAlign=bottom;endArrow=open;endSize=8;strokeColor=#ff0000;rounded=0;exitX=0.5;exitY=1;exitDx=0;exitDy=0;entryX=0.5;entryY=0;entryDx=0;entryDy=0;" edge="1" parent="1" source="X_r9VZnWIStp2DCHGnrE-3">
          <mxGeometry relative="1" as="geometry">
            <mxPoint x="270" y="390" as="targetPoint" />
            <mxPoint x="280" y="320" as="sourcePoint" />
          </mxGeometry>
        </mxCell>
        <mxCell id="X_r9VZnWIStp2DCHGnrE-11" style="edgeStyle=orthogonalEdgeStyle;rounded=0;orthogonalLoop=1;jettySize=auto;html=1;exitX=0;exitY=0.5;exitDx=0;exitDy=0;endArrow=none;endFill=0;entryX=1;entryY=0.5;entryDx=0;entryDy=0;" edge="1" parent="1" source="X_r9VZnWIStp2DCHGnrE-8" target="X_r9VZnWIStp2DCHGnrE-12">
          <mxGeometry relative="1" as="geometry">
            <mxPoint x="160" y="410" as="targetPoint" />
          </mxGeometry>
        </mxCell>
        <mxCell id="X_r9VZnWIStp2DCHGnrE-8" value="Condition" style="rhombus;whiteSpace=wrap;html=1;fillColor=#ffffc0;strokeColor=#ff0000;" vertex="1" parent="1">
          <mxGeometry x="230" y="390" width="80" height="40" as="geometry" />
        </mxCell>
        <mxCell id="X_r9VZnWIStp2DCHGnrE-12" value="DeadGuid Updated(reader)&lt;br&gt;&amp;amp;&amp;amp;&lt;br&gt;DeadGuid.Value &amp;gt; 0&lt;br&gt;【新目标被击杀】" style="html=1;" vertex="1" parent="1">
          <mxGeometry x="30" y="377.5" width="160" height="65" as="geometry" />
        </mxCell>
        <mxCell id="X_r9VZnWIStp2DCHGnrE-14" value="yes" style="edgeStyle=orthogonalEdgeStyle;html=1;verticalAlign=bottom;endArrow=open;endSize=8;strokeColor=#ff0000;rounded=0;exitX=0.5;exitY=1;exitDx=0;exitDy=0;entryX=0.5;entryY=0;entryDx=0;entryDy=0;" edge="1" parent="1" source="X_r9VZnWIStp2DCHGnrE-8" target="X_r9VZnWIStp2DCHGnrE-15">
          <mxGeometry x="0.3333" y="20" relative="1" as="geometry">
            <mxPoint x="270" y="460" as="targetPoint" />
            <mxPoint x="280" y="380" as="sourcePoint" />
            <Array as="points" />
            <mxPoint as="offset" />
          </mxGeometry>
        </mxCell>
        <mxCell id="X_r9VZnWIStp2DCHGnrE-15" value="DamageDone.Remove(DeadGuid)&lt;br&gt;DamageTaken.Remove(DeadGuid)" style="rounded=1;whiteSpace=wrap;html=1;arcSize=40;fontColor=#000000;fillColor=#ffffc0;strokeColor=#ff0000;" vertex="1" parent="1">
          <mxGeometry x="165" y="460" width="210" height="40" as="geometry" />
        </mxCell>
        <mxCell id="X_r9VZnWIStp2DCHGnrE-16" value="KillCredit.Invoke()" style="rounded=1;whiteSpace=wrap;html=1;arcSize=40;fontColor=#000000;fillColor=#ffffc0;strokeColor=#ff0000;" vertex="1" parent="1">
          <mxGeometry x="210" y="530" width="120" height="40" as="geometry" />
        </mxCell>
        <mxCell id="X_r9VZnWIStp2DCHGnrE-17" value="" style="edgeStyle=orthogonalEdgeStyle;html=1;verticalAlign=bottom;endArrow=open;endSize=8;strokeColor=#ff0000;rounded=0;exitX=0.5;exitY=1;exitDx=0;exitDy=0;entryX=0.5;entryY=0;entryDx=0;entryDy=0;" edge="1" parent="1" source="X_r9VZnWIStp2DCHGnrE-15" target="X_r9VZnWIStp2DCHGnrE-16">
          <mxGeometry relative="1" as="geometry">
            <mxPoint x="280" y="400" as="targetPoint" />
            <mxPoint x="280" y="380" as="sourcePoint" />
          </mxGeometry>
        </mxCell>
        <mxCell id="X_r9VZnWIStp2DCHGnrE-18" value="GoapAgent.&lt;br&gt;OnKillCredit()" style="rounded=1;whiteSpace=wrap;html=1;arcSize=40;fontColor=#000000;fillColor=#ffffc0;strokeColor=#ff0000;" vertex="1" parent="1">
          <mxGeometry x="210" y="600" width="120" height="40" as="geometry" />
        </mxCell>
        <mxCell id="X_r9VZnWIStp2DCHGnrE-19" value="" style="edgeStyle=orthogonalEdgeStyle;html=1;verticalAlign=bottom;endArrow=open;endSize=8;strokeColor=#ff0000;rounded=0;exitX=0.5;exitY=1;exitDx=0;exitDy=0;entryX=0.5;entryY=0;entryDx=0;entryDy=0;" edge="1" parent="1" source="X_r9VZnWIStp2DCHGnrE-16" target="X_r9VZnWIStp2DCHGnrE-18">
          <mxGeometry relative="1" as="geometry">
            <mxPoint x="280" y="540" as="targetPoint" />
            <mxPoint x="280" y="510" as="sourcePoint" />
          </mxGeometry>
        </mxCell>
        <mxCell id="X_r9VZnWIStp2DCHGnrE-20" value="LastCombatKillCount++&lt;br&gt;ConsumableCorpseCount++" style="rounded=1;whiteSpace=wrap;html=1;arcSize=40;fontColor=#000000;fillColor=#ffffc0;strokeColor=#ff0000;" vertex="1" parent="1">
          <mxGeometry x="190" y="670" width="160" height="40" as="geometry" />
        </mxCell>
        <mxCell id="X_r9VZnWIStp2DCHGnrE-21" value="" style="edgeStyle=orthogonalEdgeStyle;html=1;verticalAlign=bottom;endArrow=open;endSize=8;strokeColor=#ff0000;rounded=0;exitX=0.5;exitY=1;exitDx=0;exitDy=0;entryX=0.5;entryY=0;entryDx=0;entryDy=0;" edge="1" parent="1" source="X_r9VZnWIStp2DCHGnrE-18" target="X_r9VZnWIStp2DCHGnrE-20">
          <mxGeometry relative="1" as="geometry">
            <mxPoint x="280" y="610" as="targetPoint" />
            <mxPoint x="280" y="580" as="sourcePoint" />
          </mxGeometry>
        </mxCell>
        <mxCell id="X_r9VZnWIStp2DCHGnrE-22" value="Combat.OnGoapEvent &lt;br&gt;(GoapStateEvent(GoapKey.prducedcorpse,true))&lt;br&gt;{SendGoapEvent(new CorpseEvent(Loc, distance)}" style="rounded=1;whiteSpace=wrap;html=1;arcSize=40;fontColor=#000000;fillColor=#ffffc0;strokeColor=#ff0000;" vertex="1" parent="1">
          <mxGeometry x="117.5" y="740" width="305" height="60" as="geometry" />
        </mxCell>
        <mxCell id="X_r9VZnWIStp2DCHGnrE-24" value="" style="edgeStyle=orthogonalEdgeStyle;html=1;verticalAlign=bottom;endArrow=open;endSize=8;strokeColor=#ff0000;rounded=0;exitX=0.5;exitY=1;exitDx=0;exitDy=0;entryX=0.5;entryY=0;entryDx=0;entryDy=0;" edge="1" parent="1" source="X_r9VZnWIStp2DCHGnrE-20" target="X_r9VZnWIStp2DCHGnrE-22">
          <mxGeometry relative="1" as="geometry">
            <mxPoint x="280" y="680" as="targetPoint" />
            <mxPoint x="280" y="650" as="sourcePoint" />
          </mxGeometry>
        </mxCell>
        <mxCell id="X_r9VZnWIStp2DCHGnrE-25" value="Loot.OnGoapEvent &lt;br&gt;corpseLocation&amp;lt;CorpseEvent&amp;gt;.Add(CorpseEvent)" style="rounded=1;whiteSpace=wrap;html=1;arcSize=40;fontColor=#000000;fillColor=#ffffc0;strokeColor=#ff0000;" vertex="1" parent="1">
          <mxGeometry x="117.5" y="830" width="305" height="50" as="geometry" />
        </mxCell>
        <mxCell id="X_r9VZnWIStp2DCHGnrE-27" value="" style="edgeStyle=orthogonalEdgeStyle;html=1;verticalAlign=bottom;endArrow=open;endSize=8;strokeColor=#ff0000;rounded=0;exitX=0.5;exitY=1;exitDx=0;exitDy=0;entryX=0.5;entryY=0;entryDx=0;entryDy=0;" edge="1" parent="1" source="X_r9VZnWIStp2DCHGnrE-22" target="X_r9VZnWIStp2DCHGnrE-25">
          <mxGeometry relative="1" as="geometry">
            <mxPoint x="280" y="750" as="targetPoint" />
            <mxPoint x="280" y="720" as="sourcePoint" />
          </mxGeometry>
        </mxCell>
      </root>
    </mxGraphModel>
  </diagram>
</mxfile>
